<svg width="22" height="23" viewBox="0 0 22 23" fill="none" xmlns="http://www.w3.org/2000/svg">
<path fill-rule="evenodd" clip-rule="evenodd" d="M15.125 23C18.922 23 22 19.9713 22 16.2353V9.47059L21.951 8.79584C21.5912 3.83983 17.4001 0 12.3505 0H9.64952C4.59988 0 0.408755 3.83983 0.0489837 8.79584L0 9.47059V16.2353C0 19.9713 3.07804 23 6.875 23L15.125 23ZM14.6209 8.11457C14.6209 8.11503 14.6209 8.11548 14.6209 8.11594L14.6203 8.13566C14.6196 8.15695 14.618 8.19261 14.6145 8.24056C14.6074 8.33678 14.5928 8.48051 14.5627 8.65552C14.5019 9.00998 14.382 9.46838 14.1518 9.9155C13.9237 10.3587 13.596 10.7748 13.1207 11.0826C12.6508 11.3868 11.98 11.6222 11 11.6222C10.0201 11.6222 9.34929 11.3868 8.87942 11.0826C8.40413 10.7748 8.0764 10.3587 7.84827 9.9155C7.61809 9.46838 7.49822 9.00999 7.43739 8.65553C7.40736 8.48052 7.39273 8.33679 7.38565 8.24057C7.38212 8.19262 7.38051 8.15696 7.37978 8.13567L7.37922 8.11494C7.37701 7.59374 6.94691 7.17059 6.4167 7.17059C5.88513 7.17059 5.4542 7.59461 5.45421 8.11765L6.41671 8.11765C5.45421 8.11765 5.45421 8.11715 5.45421 8.11765L5.45421 8.11974L5.45422 8.12224L5.45426 8.1285L5.45448 8.1459C5.4547 8.15964 5.45512 8.17764 5.45588 8.19961C5.45738 8.24353 5.46025 8.30351 5.46567 8.37729C5.4765 8.52452 5.49768 8.72857 5.53926 8.97089C5.62167 9.45111 5.78827 10.1056 6.13101 10.7714C6.4758 11.4412 7.00745 12.1379 7.82121 12.6648C8.6404 13.1953 9.68833 13.5163 11 13.5163C12.3117 13.5163 13.3597 13.1953 14.1789 12.6648C14.9926 12.1379 15.5243 11.4412 15.8691 10.7714C16.2118 10.1056 16.3784 9.45112 16.4608 8.9709C16.5024 8.72857 16.5236 8.52452 16.5344 8.37729C16.5399 8.30352 16.5427 8.24354 16.5442 8.19962C16.545 8.17764 16.5454 8.15965 16.5456 8.1459L16.5459 8.1285L16.5459 8.12225L16.5459 8.11975C16.5459 8.11924 16.5459 8.11766 15.5834 8.11765L16.5459 8.11766C16.5459 7.59461 16.115 7.1706 15.5834 7.17059C15.0532 7.17058 14.6232 7.59342 14.6209 8.11457C14.6209 8.11492 14.6209 8.11423 14.6209 8.11457ZM14.6209 8.11594C14.6209 8.11621 14.6209 8.11567 14.6209 8.11594V8.11594Z" fill="#F7DFB0"/>
</svg>
