<svg width="22" height="24" viewBox="0 0 22 24" fill="none" xmlns="http://www.w3.org/2000/svg">
<path d="M0.763011 19.3543C0.81328 18.9026 0.838415 18.6768 0.869891 18.5156C1.25191 16.5599 2.85726 15.2432 4.87843 15.2279C5.04497 15.2267 5.30499 15.2455 5.82504 15.2831C7.44028 15.3999 9.25976 15.4955 10.8868 15.4955C12.585 15.4955 14.4682 15.3913 16.1054 15.2676C16.6069 15.2297 16.8577 15.2108 17.0208 15.2112C18.9357 15.2164 20.4826 16.3871 20.9816 18.2088C21.0241 18.364 21.0647 18.5784 21.1459 19.0072C21.2354 19.4801 21.2801 19.7165 21.2976 19.9086C21.4995 22.1296 19.8431 24.0944 17.5904 24.306C17.3955 24.3243 17.1514 24.3243 16.6633 24.3243L5.28391 24.3243C4.83972 24.3243 4.61763 24.3243 4.43603 24.3085C2.28065 24.1199 0.641903 22.3183 0.68661 20.1865C0.690376 20.0069 0.714588 19.7894 0.763011 19.3543Z" fill="#F7DFB0"/>
<path fill-rule="evenodd" clip-rule="evenodd" d="M17.0189 15.8869C16.8906 15.8866 16.6767 15.9021 16.1578 15.9413C14.5125 16.0656 12.6099 16.1712 10.8868 16.1712C9.23594 16.1712 7.39781 16.0743 5.77485 15.9569C5.2368 15.918 5.01461 15.9026 4.88368 15.9036C3.18925 15.9164 1.86348 17.0037 1.54322 18.6433C1.51841 18.7703 1.49664 18.9605 1.44461 19.428C1.39452 19.878 1.37513 20.0585 1.37215 20.2005C1.3349 21.977 2.70052 23.4783 4.49667 23.6354C4.64025 23.648 4.82442 23.6487 5.2839 23.6487L16.6633 23.6487C17.1683 23.6487 17.3713 23.6479 17.5253 23.6334C19.4026 23.457 20.7829 21.8198 20.6146 19.9689C20.6008 19.8171 20.5644 19.6204 20.4718 19.1311C20.3878 18.6873 20.3531 18.5072 20.3196 18.3849C19.9012 16.8573 18.6246 15.8912 17.0189 15.8869ZM16.105 14.59C16.5579 14.5558 16.8319 14.5351 17.0226 14.5356C19.2467 14.5415 21.064 15.9169 21.6436 18.0327C21.6933 18.2141 21.7384 18.4522 21.8119 18.8406L21.8286 18.9289C21.9099 19.3584 21.9602 19.6238 21.9806 19.8484C22.2161 22.4395 20.2837 24.7317 17.6554 24.9787C17.4277 25.0001 17.1537 25 16.7104 25L5.24151 25C4.83769 25 4.58765 25.0001 4.37537 24.9815C1.86075 24.7615 -0.0511153 22.6596 0.00104204 20.1726C0.00544516 19.9626 0.0327164 19.7177 0.076759 19.3222C0.0782805 19.3085 0.0798221 19.2947 0.0813834 19.2806C0.0830896 19.2653 0.0847709 19.2502 0.0864288 19.2353C0.131912 18.8264 0.159733 18.5763 0.196536 18.3879C0.640308 16.116 2.52525 14.57 4.87317 14.5523C5.06792 14.5508 5.35151 14.5713 5.82095 14.6053L5.87521 14.6092C7.48273 14.7254 9.28357 14.8198 10.8868 14.8198C12.5601 14.8198 14.4238 14.717 16.0529 14.5939L16.105 14.59Z" fill="#F7DFB0"/>
<path d="M5.69548 5.40543C5.69548 2.42011 8.15147 3.05176e-05 11.1811 3.05176e-05C14.2107 3.05176e-05 16.6667 2.42011 16.6667 5.40543V6.17763C16.6667 8.73648 14.5616 10.8108 11.9648 10.8108H10.3974C7.80061 10.8108 5.69548 8.73648 5.69548 6.17763V5.40543Z" fill="#F7DFB0"/>
</svg>
