<svg xmlns="http://www.w3.org/2000/svg" width="18" height="18" viewBox="0 0 18 18">
    <g fill="none" fill-rule="evenodd">
        <g fill-rule="nonzero">
            <g transform="translate(-290.000000, -578.000000) translate(290.000000, 578.000000)">
                <circle cx="9" cy="9" r="1.125" fill="#5F6368"/>
                <path fill="#5F6368" d="M11.467 13.59l-.967-1.005-.053-.053-.952-.952c-.151.026-.304.042-.457.045-.703.01-1.38-.262-1.88-.755-.501-.494-.783-1.167-.783-1.87.003-.153.019-.306.045-.457l-1.5-1.5-1.17-1.14c-.847.797-1.572 1.714-2.152 2.722-.134.232-.134.518 0 .75.472.818 3 4.875 7.417 4.875h.188c.83-.025 1.65-.195 2.422-.502l-.158-.158zM6.442 4.32l2.1 2.1c.152-.026.305-.042.458-.045 1.45 0 2.625 1.175 2.625 2.625-.003.153-.019.306-.045.457l2.01 2.01.63.63c.857-.795 1.593-1.712 2.182-2.722.134-.232.134-.518 0-.75-.48-.832-3.12-5.01-7.605-4.875-.83.025-1.65.195-2.422.503l.067.067zM15.533 14.467l-.976-.967-1.5-1.5-7.14-7.147L4.816 3.75 3.532 2.467c-.19-.19-.467-.264-.727-.194-.26.07-.463.272-.532.532-.07.26.004.537.194.728l1.68 1.717L5.46 6.525 10.943 12l.052.053L12 13.056l.443.443 2.024 2.033c.141.141.333.221.533.221s.392-.08.533-.221c.141-.141.221-.333.221-.533s-.08-.392-.221-.533z"/>
            </g>
        </g>
    </g>
</svg>
