<svg xmlns="http://www.w3.org/2000/svg" width="18" height="18" viewBox="0 0 18 18">
    <g fill="none" fill-rule="evenodd">
        <g fill-rule="nonzero">
            <g transform="translate(-290.000000, -578.000000) translate(290.000000, 578.000000)">
                <circle cx="9" cy="9" r="1.125" fill="#5F6368"/>
                <path fill="#5F6368" d="M16.402 8.625c-.48-.832-3.12-5.01-7.605-4.875-4.147.105-6.547 3.75-7.2 4.875-.133.232-.133.518 0 .75.473.818 3 4.875 7.418 4.875h.188c4.147-.105 6.555-3.75 7.2-4.875.133-.232.133-.518 0-.75zm-7.402 3c-1.45 0-2.625-1.175-2.625-2.625S7.55 6.375 9 6.375 11.625 7.55 11.625 9 10.45 11.625 9 11.625z"/>
            </g>
        </g>
    </g>
</svg>
