<svg width="21" height="21" viewBox="0 0 21 21" fill="none" xmlns="http://www.w3.org/2000/svg">
<path d="M4.38281 11.8203C5.40365 12.8411 6.64323 13.3516 8.10156 13.3516C9.5599 13.3516 10.7995 12.8411 11.8203 11.8203C12.8411 10.7995 13.3516 9.5599 13.3516 8.10156C13.3516 6.64323 12.8411 5.40365 11.8203 4.38281C10.7995 3.36198 9.5599 2.85156 8.10156 2.85156C6.64323 2.85156 5.40365 3.36198 4.38281 4.38281C3.36198 5.40365 2.85156 6.64323 2.85156 8.10156C2.85156 9.5599 3.36198 10.7995 4.38281 11.8203ZM15.1016 13.3516L20.8984 19.1484L19.1484 20.8984L13.3516 15.1016V14.1719L13.0234 13.8438C11.638 15.0469 9.9974 15.6484 8.10156 15.6484C5.98698 15.6484 4.18229 14.9193 2.6875 13.4609C1.22917 12.0026 0.5 10.2161 0.5 8.10156C0.5 5.98698 1.22917 4.20052 2.6875 2.74219C4.18229 1.2474 5.98698 0.5 8.10156 0.5C10.2161 0.5 12.0026 1.2474 13.4609 2.74219C14.9193 4.20052 15.6484 5.98698 15.6484 8.10156C15.6484 9.9974 15.0469 11.638 13.8438 13.0234L14.1719 13.3516H15.1016Z" fill="#161616"/>
</svg>
